<?xml version="1.0" standalone="no"?>
<!DOCTYPE svg PUBLIC "-//W3C//DTD SVG 20010904//EN" "http://www.w3.org/TR/2001/REC-SVG-20010904/DTD/svg10.dtd">
<svg xmlns="http://www.w3.org/2000/svg" version="1.0" width="1280" height="1280" viewBox="0 0 1280.000000 1280.000000" preserveAspectRatio="xMidYMid meet">

<g transform="translate(0.000000,1280.000000) scale(0.100000,-0.100000)" fill="#000000" stroke="none">
<path d="M6135 9310 c-192 -17 -456 -73 -650 -136 -818 -269 -1478 -876 -1820 -1674 l-34 -80 297 0 298 0 68 136 c319 632 887 1120 1566 1344 142 47 246 73 415 102 178 30 636 33 815 5 373 -59 725 -189 1031 -380 198 -123 346 -244 521 -426 192 -199 329 -390 450 -627 35 -68 66 -124 70 -124 18 0 -107 254 -199 407 -212 351 -466 632 -791 876 -405 303 -864 491 -1371 563 -124 17 -534 26 -666 14z"/>
<path d="M6425 8835 c-767 -84 -1452 -512 -1861 -1160 -73 -115 -136 -234 -131 -248 2 -6 29 33 61 86 173 295 463 588 757 765 375 225 757 332 1189 332 375 0 702 -76 1032 -241 235 -116 389 -229 589 -428 143 -144 238 -264 335 -423 l59 -98 253 0 252 0 -41 83 c-251 500 -726 935 -1259 1153 -394 160 -827 223 -1235 179z"/>
<path d="M3697 6968 l-177 -193 792 -5 c790 -5 793 -5 840 -27 82 -38 87 -92 11 -129 -36 -18 -78 -19 -846 -22 l-807 -2 2 -478 3 -477 675 -3 c694 -3 948 5 1086 33 242 50 438 170 509 312 26 50 30 69 30 138 0 97 -25 156 -96 227 l-47 47 44 47 c24 25 56 72 71 103 24 47 28 69 28 136 -1 101 -23 153 -101 235 -102 107 -240 178 -434 222 -91 21 -122 22 -751 25 l-655 4 -177 -193z m1470 -792 c74 -16 113 -39 113 -66 0 -11 -11 -27 -25 -36 -59 -39 -130 -43 -677 -44 l-528 0 0 80 0 80 528 0 c401 -1 542 -4 589 -14z"/>
<path d="M6195 6971 c-94 -105 -171 -195 -173 -201 -2 -6 292 -10 830 -12 919 -4 879 -1 949 -68 40 -38 56 -89 44 -137 -10 -43 -69 -90 -143 -115 l-67 -23 -812 -3 -813 -3 0 -389 0 -390 270 0 270 0 2 193 3 192 366 3 366 2 268 -195 268 -195 384 0 c215 0 383 4 383 9 0 5 -12 17 -27 26 -16 10 -84 59 -153 110 -69 50 -191 140 -272 199 -82 59 -150 111 -153 116 -2 4 17 15 43 25 128 47 283 178 333 281 35 72 47 156 37 248 -27 250 -236 418 -614 492 -78 15 -174 18 -754 21 l-666 4 -169 -190z"/>
<path d="M8752 6398 l3 -763 265 0 265 0 3 763 2 762 -270 0 -270 0 2 -762z"/>
<path d="M3665 5300 c336 -785 987 -1391 1785 -1662 178 -60 345 -100 565 -134 142 -23 589 -26 745 -5 882 113 1661 603 2142 1346 115 178 270 476 255 491 -3 3 -35 -52 -71 -122 -75 -144 -168 -290 -264 -414 -96 -124 -370 -393 -494 -486 -374 -278 -779 -448 -1238 -521 -179 -28 -637 -25 -815 5 -169 29 -273 55 -415 102 -679 224 -1247 712 -1566 1344 l-68 136 -298 0 -297 0 34 -80z"/>
<path d="M4430 5369 c0 -6 25 -56 56 -112 308 -557 812 -977 1410 -1177 574 -191 1195 -168 1764 64 533 218 1008 653 1259 1154 l41 82 -252 0 -253 0 -65 -106 c-225 -366 -539 -655 -915 -842 -333 -166 -659 -242 -1035 -242 -614 0 -1175 232 -1606 664 -141 142 -246 275 -337 429 -57 95 -67 108 -67 86z"/>
</g>
</svg>